<svg id="Layer_5" enable-background="new 0 0 64 64" height="512" viewBox="0 0 64 64" width="512" xmlns="http://www.w3.org/2000/svg" xmlns:xlink="http://www.w3.org/1999/xlink"><linearGradient id="SVGID_1_" gradientUnits="userSpaceOnUse" x1="32" x2="32" y1="63" y2=".137"><stop offset="0" stop-color="#9f2fff"/><stop offset="1" stop-color="#0bb1d3"/></linearGradient><path d="m55 .137-6.754 10.613c-.445.698-.763 1.459-.972 2.25h-13.274c-1.641 0-3.088.806-4 2.031-.912-1.225-2.359-2.031-4-2.031h-16.414l-8.586 8.586v36.414c0 2.757 2.243 5 5 5h20c1.641 0 3.088-.806 4-2.031.912 1.225 2.359 2.031 4 2.031h20c2.757 0 5-2.243 5-5v-36.069c2.387-1.379 4-3.952 4-6.901 0-1.519-.431-2.999-1.246-4.279zm-41 24.863c0-1.103.897-2 2-2s2 .897 2 2-.897 2-2 2-2-.897-2-2zm2 4c2.757 0 5 2.243 5 5v1h-10v-1c0-2.757 2.243-5 5-5zm2.96-1.334c.64-.709 1.04-1.638 1.04-2.666 0-2.206-1.794-4-4-4s-4 1.794-4 4c0 1.028.4 1.957 1.04 2.666-2.382 1.118-4.04 3.533-4.04 6.334v1h-2v-12h4v-4h14v16h-2v-1c0-2.801-1.658-5.216-4.04-6.334zm-14.546-6.666 4.586-4.586v4.586zm21.586 40h-20c-1.654 0-3-1.346-3-3v-35h2v14h22v-20h-16v-2h15c1.654 0 3 1.346 3 3v40c0 1.654-1.346 3-3 3zm31-3c0 1.654-1.346 3-3 3h-20c-1.654 0-3-1.346-3-3v-40c0-1.654 1.346-3 3-3h13.002c0 .01-.002.02-.002.03 0 4.395 3.575 7.97 8.029 7.97.681 0 1.339-.095 1.971-.257zm-2.029-37c-3.292 0-5.971-2.678-5.971-5.97 0-1.138.323-2.246.934-3.206l5.066-7.961 5.066 7.962c.611.959.934 2.067.934 3.205 0 3.292-2.679 5.97-6.029 5.97zm1.029-7h3v2h-3v3h-2v-3h-3v-2h3v-3h2zm-51 45h22v-8h-22zm12-2h-2v-4h2zm2-4h2v4h-2zm-6 4h-2v-4h2zm12 0h-2v-4h2zm-18-4h2v4h-2zm4-12h-6v-2h6zm2-2h14v2h-14zm-8 4h22v2h-22zm14 6h-14v-2h14zm2-2h6v2h-6zm20.293 2.293-1.707 1.707h-6.586v8h8v-6.586l1.707-1.707zm-2.293 7.707h-4v-4h2.586l-2.293 2.293 1.414 1.414 2.293-2.293zm.586-16h-6.586v8h8v-6.586l1.707-1.707-1.414-1.414zm-.586 6h-4v-4h2.586l-2.293 2.293 1.414 1.414 2.293-2.293zm.586-16h-6.586v8h8v-6.586l1.707-1.707-1.414-1.414zm-.586 6h-4v-4h2.586l-2.293 2.293 1.414 1.414 2.293-2.293zm4 20h12v2h-12zm0-4h12v2h-12zm0-6h12v2h-12zm0-4h12v2h-12zm0-6h12v2h-12zm0-4h12v2h-12zm-8-14h-2v-2h2zm10 0h-8v-2h8zm0 4h-12v-2h12zm0 4h-12v-2h12z" fill="url(#SVGID_1_)"/></svg>