<svg height="512" viewBox="0 0 64 64" width="512" xmlns="http://www.w3.org/2000/svg"><g id="clipboard-report-health_insurance-healthcare" data-name="clipboard-report-health insurance-healthcare"><path d="m45 21v-10a2.006 2.006 0 0 0 -2-2h-9v4h7v9.5l-12 4.5v12c0 .34.01.67.04 1a13.355 13.355 0 0 0 1.89 6 14.568 14.568 0 0 0 2.17 2.76l3.15 3.24 4.86 5h-34.11v-44h7v-4h-9a2.006 2.006 0 0 0 -2 2v48a2.006 2.006 0 0 0 2 2h40l11.9-12.24a13.615 13.615 0 0 0 4.1-9.76v-12zm12 17.86a9.991 9.991 0 0 1 -2.93 7.07l-2.07 2.07v-2a4 4 0 0 0 -4-4h7l-2-3v-4a5 5 0 0 0 -5-5h-3a3.989 3.989 0 0 0 -3.88 3.06l2.61 1.31a6.108 6.108 0 0 0 2.69.63h2.58v3a4 4 0 0 1 -4 4h-3a4 4 0 0 0 -4 4v2l-2.07-2.07a9.991 9.991 0 0 1 -2.93-7.07v-8.86l12-5 12 5z" fill="#bddbff"/><path d="m22 30h4v-4h4v-4h-4v-4h-4v4h-4v4h4z" fill="#bddbff"/><circle cx="24" cy="8" fill="#bddbff" r="1"/><g fill="#57a4ff"><path d="m11 33h4v2h-4z"/><path d="m11 39h4v2h-4z"/><path d="m11 45h4v2h-4z"/><path d="m11 51h4v2h-4z"/><path d="m61.35 26.06-15.35-5.75v-9.31a3.009 3.009 0 0 0 -3-3h-8.18a3.01 3.01 0 0 0 -2.82-2h-2.34a6 6 0 0 0 -11.32 0h-2.34a3.01 3.01 0 0 0 -2.82 2h-8.18a3.009 3.009 0 0 0 -3 3v48a3.009 3.009 0 0 0 3 3h40a1.022 1.022 0 0 0 .72-.3l11.89-12.24a14.538 14.538 0 0 0 4.39-10.46v-12a1.007 1.007 0 0 0 -.65-.94zm-26.35-16.06h8a1 1 0 0 1 1 1v9.31l-2 .75v-8.06a1 1 0 0 0 -1-1h-6zm-20-1a1 1 0 0 1 1-1h3.1a.988.988 0 0 0 .98-.8 4 4 0 0 1 7.84 0 .988.988 0 0 0 .98.8h3.1a1 1 0 0 1 1 1v4h-18zm-1 6h20a1 1 0 0 0 1-1h5v7.81l-9 3.37v-3.18a1 1 0 0 0 -1-1h-3v-3a1 1 0 0 0 -1-1h-4a1 1 0 0 0 -1 1v3h-3a1 1 0 0 0 -1 1v4a1 1 0 0 0 1 1h3v3a1 1 0 0 0 1 1h4a1 1 0 0 0 1-1v-3h1v6h-11v2h11v4h-11v2h11.15a14.453 14.453 0 0 0 1.14 4h-12.29v2h13.39a15.39 15.39 0 0 0 2 2.46l1.5 1.54h-16.89v2h18.83l2.92 3h-30.75v-42h5a1 1 0 0 0 1 1zm8 10h-3v-2h3a1 1 0 0 0 1-1v-3h2v3a1 1 0 0 0 1 1h3v2h-3a1 1 0 0 0 -1 1v3h-2v-3a1 1 0 0 0 -1-1zm-17 35a1 1 0 0 1 -1-1v-48a1 1 0 0 1 1-1h8v2h-6a1 1 0 0 0 -1 1v44a1 1 0 0 0 1 1h33.69l1.94 2zm55-21a12.591 12.591 0 0 1 -3.82 9.06l-11.18 11.51-11.18-11.51a.01.01 0 0 1 -.01-.01 12.582 12.582 0 0 1 -3.81-9.05v-11.31l15-5.62 15 5.62z"/><path d="m57.38 29.08-12-5a.916.916 0 0 0 -.76 0l-12 5a.987.987 0 0 0 -.62.92v8.86a10.922 10.922 0 0 0 3.22 7.78l9.07 9.07a1.014 1.014 0 0 0 1.42 0l9.07-9.07a10.922 10.922 0 0 0 3.22-7.78v-8.86a.987.987 0 0 0 -.62-.92zm-6.38 18.51-6 6-6-6v-1.59a3.009 3.009 0 0 1 3-3h6a3.009 3.009 0 0 1 3 3zm-7.71-12.33a7.063 7.063 0 0 0 3.13.74h1.58v2a3 3 0 0 1 -6 0v-3.38zm-.91-2.69a2.989 2.989 0 0 1 5.62 1.43h-1.58a4.956 4.956 0 0 1 -2.24-.53zm6.74-1.39a4 4 0 0 1 2.88 3.82v4a.967.967 0 0 0 .17.55l.96 1.45h-4.16a4.924 4.924 0 0 0 1.03-3v-4a4.963 4.963 0 0 0 -.88-2.82zm4.24 14.04-.4.4a4.835 4.835 0 0 0 -.99-2.62h3.02a8.764 8.764 0 0 1 -1.63 2.22zm2.64-6.36a8.841 8.841 0 0 1 -.32 2.36l-1.68-2.52v-3.7a6 6 0 0 0 -6-6h-3a5 5 0 0 0 -5 5v4a4.934 4.934 0 0 0 1.1 3.09 4.987 4.987 0 0 0 -4.06 4.53l-.4-.4a8.942 8.942 0 0 1 -2.64-6.36v-8.19l11-4.59 11 4.59z"/><circle cx="24" cy="8" r="2"/></g></g></svg>