<svg id="Layer_1" height="512" viewBox="0 0 512 512" width="512" xmlns="http://www.w3.org/2000/svg"><g><g><g><path d="m184 328h-40v24h-88v-136c0-35.346 28.654-64 64-64h32c35.346 0 64 28.654 64 64v80c0 17.673-14.327 32-32 32z" fill="#f0915a"/></g><g><path d="m184 328h-24c-8.837 0-16-7.163-16-16v-160h8c35.346 0 64 28.654 64 64v80c0 17.673-14.327 32-32 32z" fill="#fab991"/></g><g><path d="m176 152h-64c-35.346 0-64 28.653-64 64v128c0 4.418 3.582 8 8 8h104c4.418 0 8-3.582 8-8v-104c0-4.418 3.582-8 8-8s8-3.582 8-8 3.582-8 8-8h24c4.418 0 8-3.582 8-8v-8c0-26.51-21.49-48-48-48z" fill="#463c4b"/></g><g><path d="m16 472h200v-88c0-17.673-14.327-32-32-32h-136c-17.673 0-32 14.327-32 32z" fill="#5ad7ff"/></g><g><path d="m152 472h64v-88c0-17.673-14.327-32-32-32-17.673 0-32 14.327-32 32z" fill="#23aae6"/></g></g><g><g><path d="m336 328h40v24h88v-136c0-35.346-28.654-64-64-64h-32c-35.346 0-64 28.654-64 64v80c0 17.673 14.327 32 32 32z" fill="#fab991"/></g><g><path d="m376 352h88c0-13.255-10.745-24-24-24h-64z" fill="#f0915a"/></g><g><circle cx="352" cy="240" fill="#463c4b" r="8"/></g><g><circle cx="320" cy="240" fill="#463c4b" r="8"/></g><g><path d="m328 280c4.418 0 8-3.582 8-8v-21.333c-8.837 0-16 7.163-16 16v5.333c0 4.418 3.582 8 8 8z" fill="#f0915a"/></g><g><path d="m336 304h-8c-4.418 0-8-3.582-8-8h24c0 4.418-3.582 8-8 8z" fill="#463c4b"/></g><g><path d="m480 216v80c0 8.837-7.163 16-16 16h-40c-8.837 0-16-7.163-16-16v-32c-8.837 0-16-7.163-16-16v-32c0-8.837 7.163-16 16-16h56c8.837 0 16 7.163 16 16z" fill="#463c4b"/></g><g><path d="m408 240c13.255 0 24 10.745 24 24s-10.745 24-24 24z" fill="#f0915a"/></g><g><path d="m296 472h200v-88c0-17.673-14.327-32-32-32h-136c-17.673 0-32 14.327-32 32z" fill="#d7e6f0"/></g><g><path d="m368 352h48c-17.673 0-32 14.327-32 32v56h-48v-56c0-17.673 14.327-32 32-32z" fill="#5ad7ff"/></g><g><path d="m432 472h64v-88c0-17.673-14.327-32-32-32-17.673 0-32 14.327-32 32z" fill="#a5c3dc"/></g></g><g><path d="m480 440h-264v32h264c8.837 0 16-7.163 16-16 0-8.837-7.163-16-16-16z" fill="#555a6e"/></g><g><path d="m496 440h-96c-8.837 0-16 7.163-16 16 0 8.837 7.163 16 16 16h96z" fill="#463c4b"/></g><g><g><path d="m192 56v124.686c0 6.248 5.065 11.314 11.314 11.314h32c3.001 0 5.878-1.192 8-3.314l20.686-20.686h72c8.837 0 16-7.163 16-16v-96c0-8.837-7.163-16-16-16h-128c-8.837 0-16 7.163-16 16z" fill="#cd3232"/></g><g><path d="m192 56v124.686c0 6.248 5.065 11.314 11.314 11.314 3.001 0 5.878-1.192 8-3.314l20.686-20.686h72c8.837 0 16-7.163 16-16v-96c0-8.837-7.163-16-16-16h-96c-8.837 0-16 7.163-16 16z" fill="#ff4646"/></g></g><g><path d="m288 90.667h-16v-16c0-4.418-3.582-8-8-8h-8c-4.418 0-8 3.582-8 8v16h-16c-4.418 0-8 3.582-8 8v8c0 4.418 3.582 8 8 8h16v16c0 4.418 3.582 8 8 8h8c4.418 0 8-3.582 8-8v-16h16c4.418 0 8-3.582 8-8v-8c0-4.419-3.582-8-8-8z" fill="#d7e6f0"/></g></g></svg>