<svg id="Layer_3" enable-background="new 0 0 64 64" height="512" viewBox="0 0 64 64" width="512" xmlns="http://www.w3.org/2000/svg"><g><path d="m62 6c0 2.209-1.791 4-4 4-1.175 0-2.2.8-2.485 1.94l-.515 2.06-.515-2.06c-.285-1.14-1.31-1.94-2.485-1.94-2.209 0-4-1.791-4-4s1.791-4 4-4c1.202 0 2.267.541 3 1.38.733-.839 1.798-1.38 3-1.38 2.209 0 4 1.791 4 4z" fill="#f4b2b0"/><path d="m16 50c0 2.209-1.791 4-4 4-1.175 0-2.2.8-2.485 1.94l-.515 2.06-.515-2.06c-.285-1.14-1.31-1.94-2.485-1.94-2.209 0-4-1.791-4-4s1.791-4 4-4c1.202 0 2.267.541 3 1.38.733-.839 1.798-1.38 3-1.38 2.209 0 4 1.791 4 4z" fill="#f4b2b0"/><g fill="#b3404a"><path d="m36 17v-2c0-2.206-1.794-4-4-4s-4 1.794-4 4v2c0 2.206 1.794 4 4 4s4-1.794 4-4zm-2 0c0 1.103-.897 2-2 2s-2-.897-2-2v-2c0-1.103.897-2 2-2s2 .897 2 2z"/><path d="m15 22v2c0 1.654 1.346 3 3 3h7v20.171c-1.164.413-2 1.525-2 2.829v2c0 .553.448 1 1 1h6c.552 0 1-.447 1-1v-15h2v15c0 .553.448 1 1 1h6c.552 0 1-.447 1-1v-2c0-1.304-.836-2.416-2-2.829v-20.171h7c1.654 0 3-1.346 3-3v-2c0-.552-.448-1-1-1h-16-16c-.552 0-1 .448-1 1zm2 1h30v1c0 .551-.449 1-1 1h-8c-.552 0-1 .448-1 1v22c0 .553.448 1 1 1 .551 0 1 .448 1 1v1h-4v-15c0-.553-.448-1-1-1h-4c-.552 0-1 .447-1 1v15h-4v-1c0-.552.449-1 1-1 .552 0 1-.447 1-1v-22c0-.552-.448-1-1-1h-8c-.551 0-1-.449-1-1z"/><path d="m56.537 16.534c2.92 4.623 4.463 9.971 4.463 15.466 0 15.99-13.009 29-29 29v2c17.093 0 31-13.906 31-31 0-5.874-1.65-11.591-4.773-16.534z"/><path d="m1 32h2c0-15.991 13.009-29 29-29 4.402 0 8.63.961 12.566 2.856l.868-1.802c-4.209-2.026-8.729-3.054-13.434-3.054-17.093 0-31 13.907-31 31z"/><path d="m32 7v-2c-14.888 0-27 12.112-27 27 0 3.991.851 7.835 2.529 11.424l1.812-.848c-1.553-3.321-2.341-6.88-2.341-10.576 0-13.785 11.215-25 25-25z"/><path d="m59 32h-2c0 13.785-11.215 25-25 25-4.791 0-9.445-1.358-13.461-3.929l-1.078 1.684c4.338 2.777 9.365 4.245 14.539 4.245 14.888 0 27-12.112 27-27z"/><path d="m43.293 12.293-6 6 1.414 1.414 5.707-5.707h5.586v-2h-6c-.265 0-.52.105-.707.293z"/><path d="m17.707 42.707 6-6-1.414-1.414-5.707 5.707h-5.586v2h6c.265 0 .52-.105.707-.293z"/><path d="m58 1c-1.086 0-2.138.363-3 1.018-.862-.655-1.914-1.018-3-1.018-2.757 0-5 2.243-5 5s2.243 5 5 5c.718 0 1.341.486 1.515 1.183l.515 2.06c.111.445.511.757.97.757s.859-.312.97-.757l.515-2.06c.174-.697.797-1.183 1.515-1.183 2.757 0 5-2.243 5-5s-2.243-5-5-5zm0 8c-1.242 0-2.36.638-3 1.64-.64-1.002-1.758-1.64-3-1.64-1.654 0-3-1.346-3-3s1.346-3 3-3c.864 0 1.662.369 2.248 1.038.379.435 1.126.435 1.505 0 .585-.669 1.383-1.038 2.247-1.038 1.654 0 3 1.346 3 3s-1.346 3-3 3z"/><path d="m9.97 58.242.515-2.06c.174-.696.797-1.182 1.515-1.182 2.757 0 5-2.243 5-5s-2.243-5-5-5c-1.086 0-2.138.363-3 1.019-.862-.656-1.914-1.019-3-1.019-2.757 0-5 2.243-5 5s2.243 5 5 5c.718 0 1.341.486 1.515 1.183l.515 2.06c.111.445.511.757.97.757s.859-.312.97-.758zm-3.97-5.242c-1.654 0-3-1.346-3-3s1.346-3 3-3c.864 0 1.662.369 2.247 1.038.38.434 1.126.434 1.506 0 .585-.669 1.383-1.038 2.247-1.038 1.654 0 3 1.346 3 3s-1.346 3-3 3c-1.242 0-2.36.639-3 1.64-.64-1.001-1.758-1.64-3-1.64z"/></g></g></svg>